Coordinates
version=1
nRows=15
nColumns=46
inDegrees=yes

Units are S.I. units (second, meters, Newtons, ...)
Angles are in degrees.

endheader
time	pelvis_tilt	pelvis_list	pelvis_rotation	pelvis_tx	pelvis_ty	pelvis_tz	bb_angle	bb_tx	bb_ty	bb_tz	hip_flexion_r	hip_adduction_r	hip_rotation_r	knee_angle_r	knee_angle_r_beta	ankle_angle_r	subtalar_angle_r	mtp_angle_r	crank_angle_r	hip_flexion_l	hip_adduction_l	hip_rotation_l	knee_angle_l	knee_angle_l_beta	ankle_angle_l	subtalar_angle_l	mtp_angle_l	crank_angle_l	lumbar_extension	lumbar_bending	lumbar_rotation	arm_flex_r	arm_add_r	arm_rot_r	elbow_flex_r	pro_sup_r	wrist_flex_r	wrist_dev_r	arm_flex_l	arm_add_l	arm_rot_l	elbow_flex_l	pro_sup_l	wrist_flex_l	wrist_dev_l
      7.50000000	    -20.12759688	      3.25185538	      4.40832637	      0.05972935	      1.10828103	     -0.27170306	      0.00000000	      0.50000000	      0.00000000	      0.25000000	     42.95782413	     -8.51086848	     -0.90551115	     35.20984961	      0.61452780	    -14.46591727	     -9.07601899	      0.00000000	      0.00000000	     98.84506320	      2.47991630	      4.36154689	    108.59319698	      1.89530883	     -4.62868503	    -11.04564688	      0.00000000	      0.00000000	    -61.51661118	     -0.60035277	    -12.44409200	     89.57888912	    -26.35281258	     36.22580365	     72.06691841	     32.18224573	      0.00000000	      0.00000000	     89.67043169	    -52.14559075	     39.66027178	     94.80657828	     35.31624026	      0.00000000	      0.00000000
      7.50500000	    -20.24404245	      3.36338731	      4.88386733	      0.05956069	      1.10934734	     -0.27237404	      0.00000000	      0.50000000	      0.00000000	      0.25000000	     44.05008000	     -8.84320212	     -0.54107974	     38.03998551	      0.66392299	    -14.93992808	    -10.45247833	      0.00000000	      0.00000000	     98.02897793	      2.88936457	      4.06837942	    106.98759656	      1.86728582	     -2.38104413	    -10.76784218	      0.00000000	      0.00000000	    -61.60244226	     -0.35739392	    -12.73602019	     89.57796979	    -26.75866382	     36.19532031	     72.14021317	     32.20817725	      0.00000000	      0.00000000	     89.67748961	    -52.01741957	     39.51580070	     94.95718031	     35.17527675	      0.00000000	      0.00000000
      7.51000000	    -20.39178063	      3.57751488	      5.24975911	      0.05949378	      1.11028924	     -0.27301514	      0.00000000	      0.50000000	      0.00000000	      0.25000000	     45.33964389	     -9.20019948	      0.08703710	     41.03376065	      0.71617423	    -15.59178578	    -11.35074770	      0.00000000	      0.00000000	     97.08022767	      3.15611548	      3.67366646	    105.23115258	      1.83663009	      0.04950042	    -10.18527991	      0.00000000	      0.00000000	    -61.68172732	     -0.26855786	    -13.04801374	     89.57334886	    -27.27855077	     36.25856262	     72.33889805	     32.27098417	      0.00000000	      0.00000000	     89.68442616	    -51.82524190	     39.31419216	     95.10625463	     34.93991987	      0.00000000	      0.00000000
      7.51500000	    -20.39196031	      3.58261384	      5.60765226	      0.05950407	      1.11116182	     -0.27355273	      0.00000000	      0.50000000	      0.00000000	      0.25000000	     46.50350858	     -9.32611779	      0.66122411	     44.06645837	      0.76910479	    -16.13937825	    -12.19505639	      0.00000000	      0.00000000	     95.91468797	      3.45540607	      3.52789143	    103.33800709	      1.80358847	      2.22641992	    -10.01768822	      0.00000000	      0.00000000	    -61.81208354	      0.00596559	    -13.17718615	     89.57301335	    -27.63319714	     36.23944465	     72.41392174	     32.29885964	      0.00000000	      0.00000000	     89.68629968	    -51.77750090	     39.19481922	     95.14784625	     34.77170737	      0.00000000	      0.00000000
      7.52000000	    -20.38408250	      3.59547880	      5.94249788	      0.05963910	      1.11183413	     -0.27405694	      0.00000000	      0.50000000	      0.00000000	      0.25000000	     47.74058402	     -9.43671123	      1.29772179	     47.17695973	      0.82339328	    -16.74701811	    -12.81475624	      0.00000000	      0.00000000	     94.65629800	      3.68331001	      3.31917534	    101.29956727	      1.76801098	      4.28568514	     -9.78001050	      0.00000000	      0.00000000	    -61.94324363	      0.22379132	    -13.27848332	     89.56858558	    -28.00756715	     36.20888229	     72.46403737	     32.32277869	      0.00000000	      0.00000000	     89.68933837	    -51.63645112	     39.09445593	     95.19563642	     34.60907958	      0.00000000	      0.00000000
      7.52500000	    -20.21490068	      3.20263630	      6.20344559	      0.05985747	      1.11235940	     -0.27438622	      0.00000000	      0.50000000	      0.00000000	      0.25000000	     48.75897922	     -9.13636150	      1.73299682	     50.12606751	      0.87486492	    -17.53090244	    -13.07095485	      0.00000000	      0.00000000	     93.29913326	      3.75893541	      3.46514269	     99.25780317	      1.73237547	      5.82391096	    -10.00980363	      0.00000000	      0.00000000	    -62.14683888	      0.71337917	    -12.93845176	     89.57675559	    -28.13942610	     36.20214702	     72.42677252	     32.32272004	      0.00000000	      0.00000000	     89.68695116	    -51.67318496	     39.01024109	     95.21923476	     34.55168229	      0.00000000	      0.00000000
      7.53000000	    -20.22639993	      3.29946058	      6.59621388	      0.06009609	      1.11257779	     -0.27478948	      0.00000000	      0.50000000	      0.00000000	      0.25000000	     50.09893667	     -9.36216401	      2.30006852	     53.29634845	      0.93019676	    -18.03930981	    -13.59403566	      0.00000000	      0.00000000	     91.93180793	      3.98813860	      3.09604092	     96.91933670	      1.69156153	      7.54901281	     -9.73853171	      0.00000000	      0.00000000	    -62.17556548	      0.87584579	    -13.16764204	     89.55019768	    -28.58882194	     36.16820955	     72.44857946	     32.34120288	      0.00000000	      0.00000000	     89.69044854	    -51.37292428	     38.98896120	     95.19648520	     34.42182967	      0.00000000	      0.00000000
      7.53500000	    -20.02469042	      3.21589272	      6.93999292	      0.06025325	      1.11272746	     -0.27497614	      0.00000000	      0.50000000	      0.00000000	      0.25000000	     51.20681604	     -9.37538873	      2.79729422	     56.36740831	      0.98379687	    -18.65684677	    -13.69805256	      0.00000000	      0.00000000	     90.42526836	      4.07928899	      2.84978427	     94.58011957	      1.65073449	      8.73023530	     -9.73524915	      0.00000000	      0.00000000	    -62.33040928	      1.18481315	    -13.07490224	     89.54070107	    -28.84773303	     36.26498550	     72.46076976	     32.36745707	      0.00000000	      0.00000000	     89.69150590	    -51.10207080	     38.93246425	     95.05606043	     34.27431084	      0.00000000	      0.00000000
      7.54000000	    -19.90321858	      3.19287676	      7.21902691	      0.06054338	      1.11271682	     -0.27531054	      0.00000000	      0.50000000	      0.00000000	      0.25000000	     52.40549841	     -9.46636365	      3.26864708	     59.34296396	      1.03573011	    -19.12685831	    -13.32471311	      0.00000000	      0.00000000	     88.94774790	      4.11139240	      2.41786971	     92.09516258	      1.60736381	      9.34585997	    -10.30987540	      0.00000000	      0.00000000	    -62.41025204	      1.27129075	    -12.15203215	     89.51776758	    -30.88502272	     36.92081102	     73.18701125	     33.93377113	      0.00000000	      0.00000000	     89.70421854	    -49.00694537	     39.15778193	     95.20750164	     27.36948686	      0.00000000	      0.00000000
      7.54500000	    -19.78393974	      2.92582597	      7.41853679	      0.06074733	      1.11230339	     -0.27537831	      0.00000000	      0.50000000	      0.00000000	      0.25000000	     53.60025936	     -9.24663628	      3.65880808	     62.23513411	      1.08620800	    -19.67336845	    -13.20471535	      0.00000000	      0.00000000	     87.57642134	      3.97960997	      2.20440268	     89.66600920	      1.56496709	      9.73716406	    -10.82757149	      0.00000000	      0.00000000	    -62.44549229	      1.58534330	    -11.90794384	     89.50144759	    -30.94584975	     37.00187543	     73.18573131	     33.94792035	      0.00000000	      0.00000000	     89.69988859	    -48.91819583	     39.19772633	     95.16687938	     27.36382441	      0.00000000	      0.00000000
      7.55000000	    -19.64130945	      2.68610888	      7.59270094	      0.06100377	      1.11171930	     -0.27534059	      0.00000000	      0.50000000	      0.00000000	      0.25000000	     54.76804055	     -9.06467610	      3.96914338	     65.02552156	      1.13490945	    -20.20236900	    -12.78337769	      0.00000000	      0.00000000	     86.21228120	      3.78223553	      1.86797836	     87.26552990	      1.52307082	      9.72420706	    -11.41543273	      0.00000000	      0.00000000	    -62.43622750	      1.85563646	    -11.60193782	     89.48906353	    -31.01970248	     37.25089452	     73.23931217	     33.98886283	      0.00000000	      0.00000000	     89.69714611	    -48.71678083	     39.27615082	     94.99750538	     27.33919209	      0.00000000	      0.00000000
      7.55500000	    -19.38714345	      2.18232385	      7.66233430	      0.06118300	      1.11082885	     -0.27525723	      0.00000000	      0.50000000	      0.00000000	      0.25000000	     55.84532190	     -8.63469237	      4.03251059	     67.75674173	      1.18257823	    -20.84561772	    -12.45083605	      0.00000000	      0.00000000	     84.88607813	      3.42458707	      1.85740167	     85.02850700	      1.48402741	      9.75381757	    -11.37091931	      0.00000000	      0.00000000	    -62.51894555	      2.19825072	    -11.14169532	     89.49910152	    -30.92308160	     37.42033186	     73.30131438	     34.01704803	      0.00000000	      0.00000000	     89.68677798	    -48.64630718	     39.30520974	     94.94387006	     27.33390356	      0.00000000	      0.00000000
      7.56000000	    -19.32201593	      2.12742642	      7.82014684	      0.06131734	      1.10990388	     -0.27532519	      0.00000000	      0.50000000	      0.00000000	      0.25000000	     57.14620688	     -8.67446872	      4.37755300	     70.44711118	      1.22953404	    -21.23872580	    -11.87732317	      0.00000000	      0.00000000	     83.59293539	      3.32230634	      1.49807862	     82.60132686	      1.44166512	      9.55588265	    -11.23152863	      0.00000000	      0.00000000	    -62.39821779	      2.31806110	    -10.99551814	     89.46178459	    -31.07798136	     37.75180424	     73.42402469	     34.07893611	      0.00000000	      0.00000000	     89.68878294	    -48.28580627	     39.49923943	     94.66672831	     27.30185254	      0.00000000	      0.00000000
      7.56500000	    -19.03621786	      1.48331401	      7.78517281	      0.06149730	      1.10889540	     -0.27489257	      0.00000000	      0.50000000	      0.00000000	      0.25000000	     58.13052405	     -8.10366213	      4.23613541	     72.89450227	      1.27224907	    -21.84933517	    -11.62480512	      0.00000000	      0.00000000	     82.27686435	      2.77287487	      1.68687870	     80.43355473	      1.40383036	      9.32556420	    -11.04429542	      0.00000000	      0.00000000	    -62.46228326	      2.64176588	    -10.36750091	     89.43468552	    -30.90634739	     37.89914679	     73.44570551	     34.09516216	      0.00000000	      0.00000000	     89.68131958	    -48.33909470	     39.46829185	     94.65742870	     27.30220071	      0.00000000	      0.00000000
      7.57000000	    -19.02476561	      1.50969704	      7.95431198	      0.06154546	      1.10734891	     -0.27493430	      0.00000000	      0.50000000	      0.00000000	      0.25000000	     59.59187479	     -8.29460473	      4.44857594	     75.61730649	      1.31977097	    -22.41912549	    -11.39545923	      0.00000000	      0.00000000	     81.14927173	      2.65916300	      1.28464394	     78.19945003	      1.36483788	      8.54682970	    -10.55927596	      0.00000000	      0.00000000	    -62.22983249	      2.71709664	    -10.20299612	     89.43656877	    -31.08317613	     38.23296250	     73.48468364	     34.14543318	      0.00000000	      0.00000000	     89.67643701	    -47.86475975	     39.80598386	     94.33742755	     27.27609436	      0.00000000	      0.00000000
